<?xml version="1.0" encoding="iso-8859-1"?>
<!-- Uploaded to: SVG Repo, www.svgrepo.com, Generator: SVG Repo Mixer Tools -->
<svg version="1.1" id="Layer_1" xmlns="http://www.w3.org/2000/svg" xmlns:xlink="http://www.w3.org/1999/xlink" 
	 viewBox="0 0 512 512" xml:space="preserve">
<rect x="72.255" y="10.341" style="fill:#D4E4AC;" width="255.645" height="127.822"/>
<circle style="fill:#FFFFFF;" cx="136.171" cy="74.25" r="39.946"/>
<polygon style="fill:#E2804F;" points="328.098,93.778 328.098,141.843 72.098,141.843 72.098,93.778 40.751,93.778 40.751,182.594 
	471.249,182.594 471.249,93.778 "/>
<rect x="32.311" y="182.658" style="fill:#D4E4AC;" width="447.373" height="23.967"/>
<polyline style="fill:#E2804F;" points="40.751,501.288 40.751,205.582 471.249,205.582 471.249,501.288 "/>
<polyline style="fill:#F2BF7E;" points="80.457,501.288 80.457,286.039 176.588,286.039 176.588,501.288 "/>
<polyline style="fill:#FFFFFF;" points="223.608,445.909 223.608,246.333 431.543,246.333 431.543,445.909 "/>
<rect x="208.071" y="441.741" style="fill:#F2BF7E;" width="239.668" height="23.967"/>
<rect y="493.975" width="512" height="15.673"/>
<polygon points="479.608,485.615 463.935,485.615 463.935,213.941 48.065,213.941 48.065,485.615 32.392,485.615 32.392,198.268 
	479.608,198.268 "/>
<rect x="32.392" y="174.236" width="447.216" height="15.673"/>
<polygon points="183.902,485.615 168.229,485.615 168.229,293.354 87.771,293.354 87.771,485.615 72.098,485.615 72.098,277.68 
	183.902,277.68 "/>
<rect x="104.49" y="389.485" width="15.673" height="15.673"/>
<path d="M455.722,473.696H200.078v-39.944h255.644V473.696z M216.056,457.718h223.689v-7.989H216.056V457.718z"/>
<polygon points="439.902,421.876 424.229,421.876 424.229,253.647 231.967,253.647 231.967,421.876 216.294,421.876 
	216.294,237.974 439.902,237.974 "/>
<rect x="72.098" y="237.975" style="fill:#FFFFFF;" width="111.804" height="15.673"/>
<rect x="264.359" y="277.681" width="95.086" height="15.673"/>
<rect x="264.359" y="310.073" style="fill:#F2BF7E;" width="55.38" height="15.673"/>
<rect x="335.412" y="397.844" style="fill:#D4E4AC;" width="64.784" height="15.673"/>
<path d="M335.889,2.352H64.266v143.8h31.864v19.725h15.673v-19.725h176.588v19.725h15.673v-19.725h31.823V2.352z M319.911,130.174
	H80.244V18.329h239.667V130.174z"/>
<polygon points="48.065,165.876 32.392,165.876 32.392,86.464 56.424,86.464 56.424,102.137 48.065,102.137 "/>
<polygon points="479.608,165.876 463.935,165.876 463.935,102.137 343.771,102.137 343.771,86.464 479.608,86.464 "/>
<path d="M136.167,122.185c-26.431,0-47.934-21.503-47.934-47.934s21.503-47.934,47.934-47.934s47.934,21.503,47.934,47.934
	S162.598,122.185,136.167,122.185z M136.167,42.296c-17.62,0-31.956,14.335-31.956,31.956s14.335,31.956,31.956,31.956
	s31.956-14.335,31.956-31.956S153.787,42.296,136.167,42.296z"/>
<rect x="207.935" y="54.072" width="96.131" height="15.673"/>
<g>
	<rect x="207.935" y="86.465" style="fill:#FFFFFF;" width="15.673" height="15.673"/>
	<rect x="240.327" y="86.465" style="fill:#FFFFFF;" width="15.673" height="15.673"/>
	<rect x="271.673" y="86.465" style="fill:#FFFFFF;" width="16.718" height="15.673"/>
</g>
</svg>