<?xml version="1.0" ?>
<!-- Uploaded to: SVG Repo, www.svgrepo.com, Generator: SVG Repo Mixer Tools -->
<svg width="800px" height="800px" viewBox="0 0 2050 2050" xmlns="http://www.w3.org/2000/svg">
<defs>
<style>.cls-1{fill:#ffffff;}.cls-2{fill:#00c769;}.cls-3{fill:#00ad5b;}.cls-4{fill:#31e38e;}.cls-5{fill:#00305f;}</style>
</defs>
<title/>
<g data-name="Layer 1" id="Layer_1">
<rect class="cls-1" height="2040" width="2040" x="5" y="5"/>
</g>
<g data-name="Layer 3" id="Layer_3">
<circle class="cls-2" cx="1025" cy="1025" r="613.7"/>
<path class="cls-3" d="M1068.5,1551.8c-339,0-613.7-274.8-613.7-613.7a613.5,613.5,0,0,1,44.4-229.8A610.7,610.7,0,0,0,411.3,1025c0,338.9,274.8,613.7,613.7,613.7,257.7,0,478.3-158.8,569.2-383.9C1486.8,1432.8,1291.5,1551.8,1068.5,1551.8Z"/>
<path class="cls-4" d="M1025,411.3A610.4,610.4,0,0,0,659.9,531.7a706.9,706.9,0,0,1,453.2-18.9,27.8,27.8,0,0,0-3.3,5.1c-18.2,33.9,18.9,89.1,82.7,123.3s130.4,34.6,148.6.8a38.6,38.6,0,0,0,3.7-10.5c165.2,128,271.9,328.1,272.9,553.1a613.3,613.3,0,0,0,21-159.6C1638.7,686.1,1363.9,411.3,1025,411.3Z"/>
<ellipse class="cls-4" cx="1339.4" cy="698.8" rx="30.8" ry="52.8" transform="translate(396.9 1879.5) rotate(-79)"/>
<ellipse class="cls-4" cx="1235.1" cy="718.7" rx="17.2" ry="25" transform="translate(-4.9 1429) rotate(-60)"/>
<path class="cls-5" d="M883.3,1096.4a29.9,29.9,0,0,1-21.2-8.7L700.6,926.2A30,30,0,1,1,743,883.7l161.5,161.5a30,30,0,0,1-21.2,51.2Z"/>
<path class="cls-5" d="M721.8,1096.4a30,30,0,0,1-21.2-51.2L862.1,883.7a30,30,0,0,1,42.4,42.5L743,1087.7A29.9,29.9,0,0,1,721.8,1096.4Z"/>
<path class="cls-5" d="M1166.7,1096.4a30,30,0,0,1-21.2-51.2L1307,883.7a30,30,0,0,1,42.4,42.5l-161.5,161.5A29.9,29.9,0,0,1,1166.7,1096.4Z"/>
<path class="cls-5" d="M1328.2,1096.4a29.9,29.9,0,0,1-21.2-8.7L1145.5,926.2a30,30,0,0,1,42.4-42.5l161.5,161.5a30,30,0,0,1-21.2,51.2Z"/>
<path class="cls-5" d="M1192.9,1343.8c-31.6,0-49.2-14.2-60.8-23.6-9.1-7.3-12.8-10.4-23.1-10.4s-14.1,3.1-23.1,10.4c-11.7,9.4-29.3,23.6-60.9,23.6s-49.2-14.2-60.9-23.6c-9-7.3-12.7-10.4-23.1-10.4s-14.1,3.1-23.1,10.4c-11.6,9.4-29.2,23.6-60.8,23.6s-49.2-14.2-60.9-23.6c-9-7.3-12.7-10.4-23.1-10.4a30,30,0,0,1,0-60c31.6,0,49.2,14.3,60.9,23.7,9,7.3,12.7,10.3,23.1,10.3s14.1-3,23.1-10.3c11.6-9.4,29.2-23.7,60.8-23.7s49.3,14.3,60.9,23.7c9,7.3,12.7,10.3,23.1,10.3s14.1-3,23.1-10.3c11.6-9.4,29.2-23.7,60.9-23.7s49.2,14.3,60.8,23.7c9,7.3,12.7,10.3,23.1,10.3s14.1-3,23.1-10.3c11.7-9.4,29.3-23.7,60.9-23.7a30,30,0,0,1,0,60c-10.4,0-14.1,3.1-23.1,10.4C1242.1,1329.6,1224.5,1343.8,1192.9,1343.8Z"/>
</g>
</svg>