<svg fill="none" height="48" viewBox="0 0 40 48" width="40" xmlns="http://www.w3.org/2000/svg"><path d="m19.6007 4.95239c-3.4667 0-6.2667 2.76597-6.2667 6.19051 0 3.3982 2.8 6.1641 6.24 6.1904-.8534-.0263-1.52-.7112-1.52-1.5542 0-.8429.6933-1.5541 1.5733-1.5541 3.7333 0 12.0267-.0001 15.68-.0001 2.5867 0 4.6934-2.081 4.6934-4.6362 0-2.55526-2.1067-4.63631-4.6934-4.63631z" fill="#5720b7"/><path d="m11.9815 17.3333c-3.46666 0-6.26666 2.766-6.26666 6.1905 0 3.3982 2.8 6.1641 6.23996 6.1905-.8533-.0264-1.52-.7113-1.52-1.5543 0-.8429.6934-1.5541 1.5734-1.5541h15.68c2.5866 0 4.6933-2.0811 4.6933-4.6363s-2.1067-4.6363-4.6933-4.6363z" fill="#6927da"/><path d="m6.71429 29.7143c-3.71429 0-6.71429011 2.9787-6.71429 6.6666.00000011 3.6596 3 6.6383 6.68569 6.6667-.91427-.0284-1.62855-.7659-1.62855-1.6738 0-.9078.74288-1.6737 1.68574-1.6737h16.80002c2.7714 0 5.0285-2.2411 5.0285-4.9929s-2.2571-4.9929-5.0285-4.9929z" fill="#7839ee"/></svg>
